<?xml version="1.0" standalone="no"?>
<!DOCTYPE svg PUBLIC "-//W3C//DTD SVG 20010904//EN"
 "http://www.w3.org/TR/2001/REC-SVG-20010904/DTD/svg10.dtd">
<svg version="1.0" xmlns="http://www.w3.org/2000/svg"
 width="520.000000pt" height="300.000000pt" viewBox="0 0 520.000000 300.000000"
 preserveAspectRatio="xMidYMid meet">

<g transform="translate(0.000000,300.000000) scale(0.100000,-0.100000)"
fill="#000000" stroke="none">
<path d="M1753 1941 c-52 -24 -83 -72 -83 -126 0 -48 12 -70 34 -62 13 5 13
11 4 38 -21 61 38 129 113 129 l32 0 -7 -46 c-8 -65 -40 -111 -95 -138 -51
-26 -75 -50 -85 -83 -10 -32 17 -30 38 2 9 14 38 36 64 49 55 28 76 49 96 97
15 36 24 134 14 145 -17 16 -86 13 -125 -5z"/>
<path d="M1444 1676 c-63 -28 -100 -106 -90 -190 18 -157 204 -366 326 -366
89 0 221 114 286 246 34 67 39 87 39 145 0 59 -4 73 -30 111 -41 58 -94 78
-162 60 -75 -20 -97 -48 -101 -132 l-4 -70 61 0 61 0 0 -35 0 -35 -55 0 -55 0
0 -61 0 -60 -37 3 -38 3 -3 58 -3 57 -54 0 -55 0 0 35 0 35 55 0 c50 0 55 2
61 24 8 32 -4 117 -19 135 -18 21 -88 51 -122 50 -16 0 -44 -6 -61 -13z m140
-50 c22 -14 26 -24 26 -61 l0 -45 -44 0 c-27 0 -51 -6 -60 -16 -19 -19 -22
-104 -4 -122 7 -7 33 -12 59 -12 l48 0 3 -52 3 -53 65 0 65 0 3 53 3 52 49 0
c57 0 70 15 70 79 0 52 -20 71 -76 71 l-44 0 0 48 c0 45 2 49 35 65 49 23 106
22 133 -3 89 -83 59 -228 -75 -371 -74 -78 -137 -114 -183 -104 -40 9 -118 69
-169 130 -116 140 -134 280 -45 350 24 20 103 15 138 -9z"/>
<path d="M2090 1485 l0 -135 25 0 c23 0 24 3 27 67 3 64 5 68 31 77 39 14 49
-1 50 -78 0 -62 2 -66 24 -66 22 0 23 3 23 73 0 45 -5 80 -13 91 -15 20 -58
25 -94 13 -22 -8 -23 -6 -23 42 0 48 -2 51 -25 51 l-25 0 0 -135z"/>
<path d="M2730 1485 l0 -135 25 0 25 0 0 135 0 135 -25 0 -25 0 0 -135z"/>
<path d="M2967 1613 c-4 -3 -7 -64 -7 -135 l0 -128 25 0 c24 0 25 3 25 58 0
44 5 63 18 75 44 40 72 13 72 -70 0 -61 1 -63 26 -63 l26 0 -4 76 c-3 66 -7
79 -28 96 -23 19 -34 19 -87 3 -22 -7 -23 -5 -23 44 0 43 -3 51 -18 51 -10 0
-22 -3 -25 -7z"/>
<path d="M2840 1555 c0 -16 -6 -25 -15 -25 -8 0 -15 -7 -15 -15 0 -8 7 -15 15
-15 12 0 15 -13 15 -56 0 -76 11 -94 60 -94 44 0 58 26 18 32 -20 3 -23 10
-26 61 -3 55 -2 57 23 57 16 0 25 6 25 15 0 9 -9 15 -25 15 -20 0 -25 5 -25
25 0 20 -5 25 -25 25 -20 0 -25 -5 -25 -25z"/>
<path d="M2370 1533 c-40 -15 -60 -46 -60 -95 0 -71 23 -90 103 -86 48 2 62 7
65 20 3 14 -2 15 -34 8 -38 -9 -84 2 -84 20 0 5 0 13 0 18 0 4 28 9 62 12 59
5 63 7 66 31 2 14 -5 35 -15 47 -18 21 -76 36 -103 25z m54 -29 c9 -3 16 -15
16 -25 0 -16 -8 -19 -46 -19 -33 0 -43 3 -38 13 22 37 35 44 68 31z"/>
<path d="M2553 1529 c-20 -6 -33 -16 -33 -25 0 -12 6 -15 23 -9 51 16 68 17
82 5 26 -22 16 -37 -27 -44 -78 -13 -110 -53 -73 -90 12 -11 35 -15 88 -14
l72 2 -5 80 c-5 73 -7 82 -30 93 -29 15 -52 15 -97 2z m87 -119 c0 -24 -34
-43 -60 -35 -19 6 -27 35 -13 48 3 4 21 7 40 7 26 0 33 -4 33 -20z"/>
<path d="M3232 1530 c-49 -20 -64 -127 -24 -163 39 -33 114 -28 120 9 3 15 1
17 -9 7 -18 -18 -74 -16 -89 2 -22 26 -17 92 7 117 20 19 26 20 58 11 27 -9
35 -8 35 2 0 23 -57 31 -98 15z"/>
<path d="M3383 1530 c-13 -5 -23 -14 -23 -21 0 -6 7 -8 16 -5 62 24 108 12
102 -27 -2 -16 -11 -23 -33 -25 -54 -5 -74 -12 -84 -31 -25 -46 28 -92 83 -71
16 6 37 8 47 5 17 -6 19 0 19 74 0 71 -2 82 -22 95 -25 18 -70 20 -105 6z m97
-115 c0 -30 -40 -59 -70 -50 -28 9 -27 53 3 65 43 17 67 12 67 -15z"/>
<path d="M3616 1523 c-13 -13 -20 -15 -23 -5 -13 35 -23 2 -23 -78 0 -73 3
-90 15 -90 12 0 15 14 15 64 0 72 14 96 57 96 15 0 23 5 21 13 -7 19 -41 19
-62 0z"/>
<path d="M3745 1529 c-34 -19 -45 -41 -45 -87 0 -57 12 -78 54 -92 37 -12 97
-2 103 17 3 9 -5 9 -31 2 -51 -14 -95 11 -96 54 0 15 10 17 70 17 67 0 70 1
70 24 0 53 -76 93 -125 65z m80 -25 c29 -29 15 -49 -38 -52 -55 -4 -71 16 -42
48 22 24 58 26 80 4z"/>
</g>
</svg>
